<svg xmlns="http://www.w3.org/2000/svg" viewBox="0 0 126.82 158.7"><defs><style>.cls-1{fill:#be1e2d;}</style></defs><title>NS_BS2</title><g id="Layer_2" data-name="Layer 2"><g id="Layer_5" data-name="Layer 5"><path class="cls-1" d="M117.91,158.7H116c-2.51,0-4-.52-4-3.17V154.3c0-2.65,1.46-3.17,4-3.17h1.93c2.61,0,4,.51,4,3.17v1.23C121.93,158.2,120.52,158.7,117.91,158.7ZM116,152.13c-2.56,0-3,.52-3,2.17v1.23c0,1.66.41,2.17,3,2.17h1.93c2.6,0,3-.51,3-2.17V154.3c0-1.65-.42-2.17-3-2.17Zm2.59-1.89h-3.21a2.75,2.75,0,0,1-2.7-2.25l-1.39-7.74a42.27,42.27,0,0,1-.67-5.08c0-2.64,1.42-3.17,3.7-3.17h5.33c2.29,0,3.7.53,3.7,3.17a42.36,42.36,0,0,1-.67,5.11l-.11.66L121.27,148A2.75,2.75,0,0,1,118.57,150.24Zm-6.2-9.47,1.28,7a1.74,1.74,0,0,0,1.71,1.43h3.21a1.76,1.76,0,0,0,1.72-1.43l1.38-7.69a43.31,43.31,0,0,0,.66-5c0-1.63-.39-2.17-2.7-2.17H114.3c-2.31,0-2.7.54-2.7,2.17a42.37,42.37,0,0,0,.65,4.91Z"/><path class="cls-1" d="M17.78,26.7H3.36A2.53,2.53,0,0,1,.83,24.17V2.53A2.53,2.53,0,0,1,3.36,0H20.19c3.75,0,7.59.83,7.59,7v.51c0,1.65.07,4.48-2.42,5.71a4,4,0,0,1,1.29.87c1.45,1.51,1.4,3.94,1.38,5.11v.33C28,25.5,24.11,26.7,17.78,26.7ZM3.36,1A1.54,1.54,0,0,0,1.83,2.53V24.17A1.54,1.54,0,0,0,3.36,25.7H17.78c6.92,0,9.25-1.56,9.25-6.19v-.35c0-1.12.06-3.19-1.1-4.39a3.53,3.53,0,0,0-2.58-1,.49.49,0,0,1-.49-.5.57.57,0,0,1,.44-.56c3.29-.38,3.52-2.6,3.48-5.25V7c0-5-2.52-6-6.59-6ZM15.19,20.69H11.88A1.67,1.67,0,0,1,10.22,19V17.21a1.67,1.67,0,0,1,1.66-1.66h3.85c2.13,0,3.16.85,3.16,2.59C18.89,20.49,17,20.69,15.19,20.69Zm-3.31-4.14a.67.67,0,0,0-.66.66V19a.67.67,0,0,0,.66.66h3.31c2.31,0,2.7-.48,2.7-1.55,0-.81-.17-1.59-2.16-1.59Zm3.77-5H11.9a1.68,1.68,0,0,1-1.68-1.68V8.15A1.68,1.68,0,0,1,11.9,6.48h3.68c2,0,3.06.86,3.06,2.55C18.64,10.49,17.38,11.55,15.65,11.55ZM11.9,7.48a.68.68,0,0,0-.68.67V9.87a.69.69,0,0,0,.68.68h3.75c1.17,0,2-.63,2-1.52s-.35-1.55-2.06-1.55Z"/><path class="cls-1" d="M44.17,27.35c-6.92,0-13.32-1.14-13.32-9.39V3.26A3.26,3.26,0,0,1,34.11,0h4.38a3.26,3.26,0,0,1,3.26,3.26V17.6c0,1.47.66,2,2.42,2s2.41-.55,2.41-2V3.26A3.26,3.26,0,0,1,49.84,0h4.38a3.26,3.26,0,0,1,3.26,3.26V18C57.48,26.21,51.08,27.35,44.17,27.35ZM34.11,1a2.26,2.26,0,0,0-2.26,2.26V18c0,6,3.46,8.39,12.32,8.39S56.48,24,56.48,18V3.26A2.26,2.26,0,0,0,54.22,1H49.84a2.26,2.26,0,0,0-2.26,2.26V17.6c0,3-2.57,3-3.41,3s-3.42,0-3.42-3V3.26A2.26,2.26,0,0,0,38.49,1Z"/><path class="cls-1" d="M76.38,26.7H69.7a2.24,2.24,0,0,1-2.24-2.24V18.53a1.32,1.32,0,0,0-.11-.53h0l-7-14.81A2.25,2.25,0,0,1,60.53,1a2.23,2.23,0,0,1,1.89-1h6.5a2.25,2.25,0,0,1,2.14,1.56l2,6.28,2-6.28A2.25,2.25,0,0,1,77.16,0h6.5a2.23,2.23,0,0,1,2,3.19L78.73,18a1.18,1.18,0,0,0-.12.53v5.93A2.23,2.23,0,0,1,76.38,26.7Zm-8.13-9.13a2.28,2.28,0,0,1,.21,1v5.93A1.24,1.24,0,0,0,69.7,25.7h6.68a1.23,1.23,0,0,0,1.23-1.24V18.53a2.29,2.29,0,0,1,.22-1l7-14.81a1.23,1.23,0,0,0-.08-1.19,1.22,1.22,0,0,0-1-.57h-6.5A1.22,1.22,0,0,0,76,1.87L73.55,9.54a.5.5,0,0,1-.48.35.58.58,0,0,1-.54-.35L70.1,1.87A1.23,1.23,0,0,0,68.92,1h-6.5A1.24,1.24,0,0,0,61.3,2.76Z"/><path class="cls-1" d="M12.31,60.35a87.43,87.43,0,0,1-8.77-.49A2.83,2.83,0,0,1,1,57V55.22a2.83,2.83,0,0,1,.93-2.1,2.77,2.77,0,0,1,2.16-.73c1.68.15,3.81.23,6.34.23,2.27,0,2.52-.4,2.52-1.23s0-1.26-2.09-1.26H8.6c-4.53,0-8.6-.69-8.6-9,0-7.77,6-8.82,11.88-8.82a74.44,74.44,0,0,1,8.44.6,2.83,2.83,0,0,1,2.49,2.82v3a2.83,2.83,0,0,1-3.1,2.83c-1.72-.16-3.58-.31-5.75-.31-3.31,0-3.31.63-3.31,1.3,0,.46,0,1,2.2,1,8.07,0,10.76,1.13,10.76,7.84C23.61,59.67,18.26,60.35,12.31,60.35Zm-8.47-7a1.8,1.8,0,0,0-1.23.47A1.83,1.83,0,0,0,2,55.22V57a1.84,1.84,0,0,0,1.63,1.84,85.53,85.53,0,0,0,8.67.48c6.83,0,10.3-1.22,10.3-7.85,0-6-2.08-6.84-9.76-6.84-1.59,0-3.2-.25-3.2-2s1.58-2.3,4.31-2.3c2.21,0,4.1.15,5.84.31a1.79,1.79,0,0,0,1.41-.47,1.81,1.81,0,0,0,.6-1.36v-3a1.84,1.84,0,0,0-1.61-1.83,72.69,72.69,0,0,0-8.32-.59C6.23,33.35,1,34.3,1,41.17c0,7.37,3.29,8,7.6,8h2.27c2.09,0,3.09.33,3.09,2.26s-1.74,2.23-3.52,2.23c-2.56,0-4.72-.08-6.43-.24Z"/><path class="cls-1" d="M50.88,59.7H43.82a1.92,1.92,0,0,1-1.92-1.92V51.52a.93.93,0,0,0-.92-.93H38a.93.93,0,0,0-.92.93v6.26a1.92,1.92,0,0,1-1.92,1.92H28.09a1.92,1.92,0,0,1-1.92-1.92V34.92A1.92,1.92,0,0,1,28.09,33h7.06a1.92,1.92,0,0,1,1.92,1.92v6.27a.92.92,0,0,0,.92.92h3a.92.92,0,0,0,.92-.92V34.92A1.92,1.92,0,0,1,43.82,33h7.06a1.92,1.92,0,0,1,1.92,1.92V57.78A1.92,1.92,0,0,1,50.88,59.7ZM38,49.59h3a1.93,1.93,0,0,1,1.92,1.93v6.26a.92.92,0,0,0,.92.92h7.06a.92.92,0,0,0,.92-.92V34.92a.92.92,0,0,0-.92-.92H43.82a.92.92,0,0,0-.92.92v6.27A1.92,1.92,0,0,1,41,43.11H38a1.92,1.92,0,0,1-1.92-1.92V34.92a.92.92,0,0,0-.92-.92H28.09a.92.92,0,0,0-.92.92V57.78a.92.92,0,0,0,.92.92h7.06a.92.92,0,0,0,.92-.92V51.52A1.93,1.93,0,0,1,38,49.59Z"/><path class="cls-1" d="M65.28,59.7H60a2.79,2.79,0,0,1-2.78-2.78V35.78A2.79,2.79,0,0,1,60,33h5.33a2.79,2.79,0,0,1,2.79,2.78V56.92A2.79,2.79,0,0,1,65.28,59.7ZM60,34a1.78,1.78,0,0,0-1.78,1.78V56.92A1.78,1.78,0,0,0,60,58.7h5.33a1.79,1.79,0,0,0,1.79-1.78V35.78A1.79,1.79,0,0,0,65.28,34Z"/><path class="cls-1" d="M86.3,59.7H80.62A2.61,2.61,0,0,1,78,57.09v-13a1.61,1.61,0,0,0-1.61-1.6H73.85a2.61,2.61,0,0,1-2.61-2.61V35.61A2.61,2.61,0,0,1,73.85,33H93.07a2.61,2.61,0,0,1,2.61,2.61v4.28a2.61,2.61,0,0,1-2.61,2.61H90.52a1.61,1.61,0,0,0-1.61,1.6v13A2.61,2.61,0,0,1,86.3,59.7ZM73.85,34a1.61,1.61,0,0,0-1.61,1.61v4.28a1.62,1.62,0,0,0,1.61,1.61H76.4A2.61,2.61,0,0,1,79,44.1v13a1.61,1.61,0,0,0,1.61,1.61H86.3a1.61,1.61,0,0,0,1.61-1.61v-13a2.61,2.61,0,0,1,2.61-2.6h2.55a1.62,1.62,0,0,0,1.61-1.61V35.61A1.61,1.61,0,0,0,93.07,34Z"/><path class="cls-1" d="M16,92.7H10a2.61,2.61,0,0,1-2.61-2.62V84.61a1.66,1.66,0,0,0-.16-.69L.6,69.73a2.63,2.63,0,0,1,.16-2.52A2.6,2.6,0,0,1,3,66H8.6a2.6,2.6,0,0,1,2.49,1.83l1.9,6,1.9-6A2.61,2.61,0,0,1,17.39,66H23a2.62,2.62,0,0,1,2.37,3.73L18.72,83.92a1.68,1.68,0,0,0-.15.69v5.47A2.62,2.62,0,0,1,16,92.7ZM3,67a1.61,1.61,0,0,0-1.37.75,1.64,1.64,0,0,0-.1,1.55L8.17,83.5h0a2.65,2.65,0,0,1,.25,1.11v5.47A1.61,1.61,0,0,0,10,91.7H16a1.62,1.62,0,0,0,1.62-1.62V84.61a2.64,2.64,0,0,1,.24-1.11l6.67-14.2A1.62,1.62,0,0,0,23,67H17.39a1.62,1.62,0,0,0-1.55,1.13L13.5,75.54a.49.49,0,0,1-.47.35.59.59,0,0,1-.55-.35l-2.34-7.41A1.61,1.61,0,0,0,8.6,67Z"/><path class="cls-1" d="M41.86,93.35C32.13,93.35,28,88.89,28,78.45c0-9.55,3.77-13.1,13.89-13.1s13.89,3.55,13.89,13.1C55.75,88.89,51.6,93.35,41.86,93.35Zm0-27C32.34,66.35,29,69.52,29,78.45c0,9.87,3.74,13.9,12.89,13.9s12.89-4,12.89-13.9C54.75,69.52,51.38,66.35,41.86,66.35Zm0,19.51c-3,0-4.49-2-4.49-6,0-2.8.34-5.79,4.49-5.79s4.5,3,4.5,5.79C46.36,83.91,44.89,85.86,41.86,85.86Zm0-10.76c-3,0-3.49,1.61-3.49,4.79,0,4.38,1.76,5,3.49,5s3.5-.59,3.5-5C45.36,76.71,44.82,75.1,41.86,75.1Z"/><path class="cls-1" d="M71.89,93.35C65,93.35,58.57,92.21,58.57,84V68.83A2.83,2.83,0,0,1,61.4,66h5.24a2.83,2.83,0,0,1,2.83,2.83V83.6c0,1.47.66,2,2.42,2s2.41-.55,2.41-2V68.83A2.83,2.83,0,0,1,77.13,66h5.24a2.83,2.83,0,0,1,2.83,2.83V84C85.2,92.21,78.8,93.35,71.89,93.35ZM61.4,67a1.83,1.83,0,0,0-1.83,1.83V84c0,6,3.45,8.39,12.32,8.39S84.2,90,84.2,84V68.83A1.83,1.83,0,0,0,82.37,67H77.13a1.83,1.83,0,0,0-1.83,1.83V83.6c0,3-2.57,3-3.41,3s-3.42,0-3.42-3V68.83A1.83,1.83,0,0,0,66.64,67Z"/><path class="cls-1" d="M16.05,125.7H3.7a2.88,2.88,0,0,1-2.87-2.87v-21A2.88,2.88,0,0,1,3.7,99H13.82C22.59,99,28,101.13,28,111.74,28,120.87,23.89,125.7,16.05,125.7ZM3.7,100a1.88,1.88,0,0,0-1.87,1.88v21A1.87,1.87,0,0,0,3.7,124.7H16.05c7.29,0,11-4.36,11-13C27,101.92,22.19,100,13.82,100Zm9.69,18.5H12a1.76,1.76,0,0,1-1.76-1.75V109A1.76,1.76,0,0,1,12,107.24H13.1c4.52,0,5.29,1.61,5.29,5.22S17.54,118.5,13.39,118.5ZM12,108.24a.76.76,0,0,0-.76.76v7.75a.76.76,0,0,0,.76.75h1.41c3.38,0,4-1.7,4-5s-.54-4.22-4.29-4.22Z"/><path class="cls-1" d="M44.17,126.35c-9.74,0-13.89-4.46-13.89-14.9,0-9.55,3.76-13.1,13.89-13.1s13.89,3.55,13.89,13.1C58.06,121.89,53.9,126.35,44.17,126.35Zm0-27c-9.52,0-12.89,3.17-12.89,12.1,0,9.87,3.73,13.9,12.89,13.9s12.89-4,12.89-13.9C57.06,102.52,53.68,99.35,44.17,99.35Zm0,19.51c-3,0-4.5-2-4.5-6,0-2.8.35-5.79,4.5-5.79s4.49,3,4.49,5.79C48.66,116.91,47.19,118.86,44.17,118.86Zm0-10.76c-3,0-3.5,1.61-3.5,4.79,0,4.38,1.77,5,3.5,5s3.49-.59,3.49-5C47.66,109.71,47.12,108.1,44.17,108.1Z"/><path class="cls-1" d="M85,125.7H78a2.45,2.45,0,0,1-2.26-1.49L70.55,112,71,123.13a2.48,2.48,0,0,1-.69,1.81,2.44,2.44,0,0,1-1.78.76h-5.2a2.46,2.46,0,0,1-2.46-2.46V101.47A2.47,2.47,0,0,1,63.34,99h7.94a2.46,2.46,0,0,1,2.29,1.54L77.82,111l-.44-9.45a2.49,2.49,0,0,1,.68-1.82A2.46,2.46,0,0,1,79.85,99H85a2.47,2.47,0,0,1,2.46,2.47v21.77A2.46,2.46,0,0,1,85,125.7ZM69.94,109a.6.6,0,0,1,.53.3l6.23,14.54a1.46,1.46,0,0,0,1.34.89h7a1.46,1.46,0,0,0,1.46-1.46V101.47A1.46,1.46,0,0,0,85,100H79.85a1.45,1.45,0,0,0-1.06.45,1.47,1.47,0,0,0-.41,1.08l.56,12.17a.52.52,0,0,1-.14.36.59.59,0,0,1-.9-.15l-5.26-13a1.45,1.45,0,0,0-1.36-.92H63.34a1.46,1.46,0,0,0-1.46,1.47v21.77a1.46,1.46,0,0,0,1.46,1.46h5.2a1.45,1.45,0,0,0,1.06-.45,1.47,1.47,0,0,0,.41-1.07l-.57-13.69a.57.57,0,0,1,.14-.37A.55.55,0,0,1,69.94,109Z"/><path class="cls-1" d="M94.76,111H92.89a2.47,2.47,0,0,1-2.42-3L92,101a2.49,2.49,0,0,1,2.42-2h3.3a2.48,2.48,0,0,1,2.28,3.42l-2.91,7A2.46,2.46,0,0,1,94.76,111Zm-.39-11a1.48,1.48,0,0,0-1.44,1.17l-1.48,7A1.48,1.48,0,0,0,92.89,110h1.87a1.47,1.47,0,0,0,1.36-.91L99,102a1.48,1.48,0,0,0-1.36-2Z"/><path class="cls-1" d="M117.28,125.7h-5.36a2.77,2.77,0,0,1-2.77-2.77V110.27a1.77,1.77,0,0,0-1.77-1.77h-2.22a2.79,2.79,0,0,1-2.78-2.78v-4A2.78,2.78,0,0,1,105.16,99H124a2.78,2.78,0,0,1,2.78,2.77v4A2.79,2.79,0,0,1,124,108.5h-2.22a1.77,1.77,0,0,0-1.77,1.77v12.66A2.77,2.77,0,0,1,117.28,125.7ZM105.16,100a1.78,1.78,0,0,0-1.78,1.77v4a1.78,1.78,0,0,0,1.78,1.78h2.22a2.77,2.77,0,0,1,2.77,2.77v12.66a1.77,1.77,0,0,0,1.77,1.77h5.36a1.77,1.77,0,0,0,1.77-1.77V110.27a2.77,2.77,0,0,1,2.77-2.77H124a1.78,1.78,0,0,0,1.78-1.78v-4A1.78,1.78,0,0,0,124,100Z"/><path class="cls-1" d="M24.28,158.7H18.47a3.18,3.18,0,0,1-2.93-1.93L10.5,145l.43,10.4a3.19,3.19,0,0,1-3.18,3.31H4a3.19,3.19,0,0,1-3.18-3.18V135.18A3.19,3.19,0,0,1,4,132h6.74a3.17,3.17,0,0,1,2.95,2l4.07,10-.4-8.7A3.18,3.18,0,0,1,20.55,132h3.73a3.19,3.19,0,0,1,3.18,3.18v20.34A3.19,3.19,0,0,1,24.28,158.7ZM9.9,142a.61.61,0,0,1,.53.3l6,14.11a2.19,2.19,0,0,0,2,1.32h5.81a2.19,2.19,0,0,0,2.18-2.18V135.18A2.19,2.19,0,0,0,24.28,133H20.55a2.17,2.17,0,0,0-2.18,2.28l.52,11.42a.45.45,0,0,1-.14.36.59.59,0,0,1-.9-.15l-5.08-12.55a2.17,2.17,0,0,0-2-1.36H4a2.19,2.19,0,0,0-2.18,2.18v20.34A2.19,2.19,0,0,0,4,157.7H7.75a2.19,2.19,0,0,0,2.18-2.27L9.4,142.49a.51.51,0,0,1,.13-.37A.56.56,0,0,1,9.9,142Z"/><path class="cls-1" d="M51,158.7H32.72a1.87,1.87,0,0,1-1.87-1.87v-23A1.87,1.87,0,0,1,32.72,132H51a1.87,1.87,0,0,1,1.87,1.87v4.75A1.87,1.87,0,0,1,51,140.49H42.62a.87.87,0,1,0,0,1.73H51a1.87,1.87,0,0,1,1.87,1.87v3.28A1.87,1.87,0,0,1,51,149.23H42.62a.87.87,0,1,0,0,1.74H51a1.87,1.87,0,0,1,1.87,1.87v4A1.87,1.87,0,0,1,51,158.7ZM32.72,133a.87.87,0,0,0-.87.87v23a.87.87,0,0,0,.87.87H51a.87.87,0,0,0,.87-.87v-4A.87.87,0,0,0,51,152H42.62a1.87,1.87,0,1,1,0-3.74H51a.86.86,0,0,0,.87-.86v-3.28a.87.87,0,0,0-.87-.87H42.62a1.87,1.87,0,1,1,0-3.73H51a.87.87,0,0,0,.87-.87v-4.75A.87.87,0,0,0,51,133Z"/><path class="cls-1" d="M76.35,158.7H58.1a1.87,1.87,0,0,1-1.87-1.87v-23A1.87,1.87,0,0,1,58.1,132H76.35a1.87,1.87,0,0,1,1.87,1.87v4.75a1.87,1.87,0,0,1-1.87,1.87H68a.87.87,0,1,0,0,1.73h8.35a1.87,1.87,0,0,1,1.87,1.87v3.28a1.87,1.87,0,0,1-1.87,1.86H68A.87.87,0,0,0,68,151h8.35a1.87,1.87,0,0,1,1.87,1.87v4A1.87,1.87,0,0,1,76.35,158.7ZM58.1,133a.87.87,0,0,0-.87.87v23a.87.87,0,0,0,.87.87H76.35a.87.87,0,0,0,.87-.87v-4a.87.87,0,0,0-.87-.87H68a1.87,1.87,0,0,1,0-3.74h8.35a.86.86,0,0,0,.87-.86v-3.28a.87.87,0,0,0-.87-.87H68a1.87,1.87,0,1,1,0-3.73h8.35a.87.87,0,0,0,.87-.87v-4.75a.87.87,0,0,0-.87-.87Z"/><path class="cls-1" d="M96.83,158.7H84.45a2.84,2.84,0,0,1-2.84-2.84v-21A2.84,2.84,0,0,1,84.45,132H94.6c8.78,0,14.22,2.13,14.22,12.74C108.82,153.87,104.67,158.7,96.83,158.7ZM84.45,133a1.85,1.85,0,0,0-1.84,1.84v21a1.84,1.84,0,0,0,1.84,1.84H96.83c7.29,0,11-4.36,11-13,0-9.82-4.85-11.74-13.22-11.74Zm9.72,18.5H92.69A1.68,1.68,0,0,1,91,149.82v-7.89a1.69,1.69,0,0,1,1.68-1.69h1.19c4.53,0,5.29,1.61,5.29,5.22S98.32,151.5,94.17,151.5Zm-1.48-10.26a.68.68,0,0,0-.68.69v7.89a.67.67,0,0,0,.68.68h1.48c3.38,0,4-1.7,4-5s-.53-4.22-4.29-4.22Z"/></g></g></svg>