<svg xmlns="http://www.w3.org/2000/svg" viewBox="0 0 126.82 158.7"><defs><style>.cls-1,.cls-2{fill:none;stroke:#be1e2d;}.cls-1{stroke-miterlimit:10;}.cls-2{stroke-linecap:round;stroke-linejoin:round;}</style></defs><title>NS_BS3</title><g id="Layer_2" data-name="Layer 2"><g id="Layer_5" data-name="Layer 5"><path class="cls-1" d="M111.88,140.86a49.77,49.77,0,0,1-.78-5.69c0-2.11.85-2.67,3.2-2.67h5.33c2.36,0,3.2.56,3.2,2.67a51.67,51.67,0,0,1-.77,5.69l-1.28,7a2.26,2.26,0,0,1-2.21,1.84h-3.21a2.24,2.24,0,0,1-2.2-1.84Zm.63,13.44c0-2.07.8-2.66,3.47-2.66h1.93c2.71,0,3.52.59,3.52,2.66v1.23c0,2.07-.81,2.67-3.52,2.67H116c-2.67,0-3.47-.6-3.47-2.67Z"/><path class="cls-2" d="M1.33,2.53a2,2,0,0,1,2-2H20.19c4.1,0,7.09,1,7.09,6.48,0,2,.44,5.76-3.91,6.26v.07c4.6.08,4.16,4.81,4.16,6.2,0,5.43-3.34,6.69-9.75,6.69H3.36a2,2,0,0,1-2-2Zm9.39,7.34a1.18,1.18,0,0,0,1.18,1.18h3.75c1.52,0,2.49-.9,2.49-2,0-1.47-.9-2-2.56-2H11.9a1.18,1.18,0,0,0-1.18,1.17Zm0,9.16a1.16,1.16,0,0,0,1.16,1.16h3.31c2.23,0,3.2-.43,3.2-2.05,0-1.33-.65-2.09-2.66-2.09H11.88a1.16,1.16,0,0,0-1.16,1.16Z"/><path class="cls-2" d="M57,18c0,7-4.64,8.89-12.81,8.89S31.35,24.94,31.35,18V3.26A2.77,2.77,0,0,1,34.11.5h4.38a2.76,2.76,0,0,1,2.76,2.76V17.6c0,2.16,1.41,2.52,2.92,2.52s2.91-.36,2.91-2.52V3.26A2.77,2.77,0,0,1,49.84.5h4.38A2.76,2.76,0,0,1,57,3.26Z"/><path class="cls-2" d="M67.8,17.79,60.85,3A1.74,1.74,0,0,1,62.42.5h6.5a1.74,1.74,0,0,1,1.66,1.21L73,9.39h.07L75.5,1.71A1.74,1.74,0,0,1,77.16.5h6.5A1.74,1.74,0,0,1,85.23,3l-7,14.81a1.71,1.71,0,0,0-.17.74v5.93a1.73,1.73,0,0,1-1.73,1.74H69.7A1.74,1.74,0,0,1,68,24.46V18.53A1.7,1.7,0,0,0,67.8,17.79Z"/><path class="cls-2" d="M1.51,55.22a2.33,2.33,0,0,1,2.55-2.33c1.41.12,3.42.23,6.38.23,2.05,0,3-.29,3-1.73s-.47-1.76-2.59-1.76H8.6C4,49.63.5,48.8.5,41.17c0-7.35,5.62-8.32,11.38-8.32a73.26,73.26,0,0,1,8.38.59,2.35,2.35,0,0,1,2,2.33v3a2.33,2.33,0,0,1-2.55,2.33C18,41,16.15,40.81,14,40.81c-3,0-3.81.47-3.81,1.8,0,1,.5,1.55,2.7,1.55,7.77,0,10.26,1,10.26,7.34,0,7.38-4.43,8.35-10.8,8.35a85.26,85.26,0,0,1-8.72-.49A2.32,2.32,0,0,1,1.51,57Z"/><path class="cls-2" d="M28.09,33.5h7.06a1.42,1.42,0,0,1,1.42,1.42v6.27A1.43,1.43,0,0,0,38,42.61h3a1.42,1.42,0,0,0,1.42-1.42V34.92a1.43,1.43,0,0,1,1.42-1.42h7.06a1.43,1.43,0,0,1,1.42,1.42V57.78a1.42,1.42,0,0,1-1.42,1.42H43.82a1.42,1.42,0,0,1-1.42-1.42V51.52A1.42,1.42,0,0,0,41,50.09H38a1.43,1.43,0,0,0-1.42,1.43v6.26a1.41,1.41,0,0,1-1.42,1.42H28.09a1.42,1.42,0,0,1-1.42-1.42V34.92A1.43,1.43,0,0,1,28.09,33.5Z"/><path class="cls-2" d="M60,33.5h5.33a2.29,2.29,0,0,1,2.29,2.28V56.92a2.29,2.29,0,0,1-2.29,2.28H60a2.28,2.28,0,0,1-2.28-2.28V35.78A2.28,2.28,0,0,1,60,33.5Z"/><path class="cls-2" d="M76.4,42H73.85a2.12,2.12,0,0,1-2.11-2.11V35.61a2.11,2.11,0,0,1,2.11-2.11H93.07a2.11,2.11,0,0,1,2.11,2.11v4.28A2.12,2.12,0,0,1,93.07,42H90.52a2.1,2.1,0,0,0-2.11,2.1v13A2.1,2.1,0,0,1,86.3,59.2H80.62a2.1,2.1,0,0,1-2.11-2.11v-13A2.1,2.1,0,0,0,76.4,42Z"/><path class="cls-2" d="M7.71,83.71,1.05,69.52A2.12,2.12,0,0,1,3,66.5H8.6a2.1,2.1,0,0,1,2,1.48L13,75.39H13L15.37,68a2.12,2.12,0,0,1,2-1.48H23a2.12,2.12,0,0,1,1.92,3L18.27,83.71a2,2,0,0,0-.2.9v5.48A2.12,2.12,0,0,1,16,92.2H10a2.11,2.11,0,0,1-2.11-2.11V84.61A2,2,0,0,0,7.71,83.71Z"/><path class="cls-2" d="M41.86,65.85c9.61,0,13.39,3.13,13.39,12.6s-3.49,14.4-13.39,14.4S28.47,88,28.47,78.45,32.25,65.85,41.86,65.85Zm4,14c0-3.17-.54-5.29-4-5.29s-4,2.12-4,5.29c0,3.82,1.29,5.47,4,5.47S45.86,83.71,45.86,79.89Z"/><path class="cls-2" d="M84.7,84c0,7-4.64,8.89-12.81,8.89S59.07,90.94,59.07,84V68.83A2.33,2.33,0,0,1,61.4,66.5h5.24A2.33,2.33,0,0,1,69,68.83V83.6c0,2.16,1.41,2.52,2.92,2.52s2.91-.36,2.91-2.52V68.83a2.33,2.33,0,0,1,2.33-2.33h5.24a2.33,2.33,0,0,1,2.33,2.33Z"/><path class="cls-2" d="M1.33,101.88A2.37,2.37,0,0,1,3.7,99.5H13.82c8.28,0,13.71,1.8,13.71,12.24,0,8.46-3.56,13.46-11.48,13.46H3.7a2.37,2.37,0,0,1-2.37-2.37Zm9.39,14.87A1.26,1.26,0,0,0,12,118h1.41c3.78,0,4.5-2,4.5-5.54s-.76-4.72-4.79-4.72H12A1.27,1.27,0,0,0,10.72,109Z"/><path class="cls-2" d="M44.17,98.85c9.61,0,13.39,3.13,13.39,12.6s-3.49,14.4-13.39,14.4S30.78,121,30.78,111.45,34.56,98.85,44.17,98.85Zm4,14c0-3.17-.54-5.29-4-5.29s-4,2.12-4,5.29c0,3.82,1.3,5.47,4,5.47S48.16,116.71,48.16,112.89Z"/><path class="cls-2" d="M63.34,99.5h7.94a2,2,0,0,1,1.82,1.23l5.27,13h.07l-.56-12.17a2,2,0,0,1,2-2H85a2,2,0,0,1,2,2v21.77a2,2,0,0,1-2,2H78a2,2,0,0,1-1.8-1.19L70,109.47h-.07l.57,13.69a2,2,0,0,1-2,2h-5.2a2,2,0,0,1-2-2V101.47A2,2,0,0,1,63.34,99.5Z"/><path class="cls-2" d="M94.37,99.5h3.3a2,2,0,0,1,1.82,2.73l-2.91,7a2,2,0,0,1-1.82,1.22H92.89A2,2,0,0,1,91,108.1l1.48-7A2,2,0,0,1,94.37,99.5Z"/><path class="cls-2" d="M107.38,108h-2.22a2.28,2.28,0,0,1-2.28-2.28v-4a2.28,2.28,0,0,1,2.28-2.27H124a2.28,2.28,0,0,1,2.28,2.27v4A2.28,2.28,0,0,1,124,108h-2.22a2.27,2.27,0,0,0-2.27,2.27v12.66a2.27,2.27,0,0,1-2.27,2.27h-5.36a2.27,2.27,0,0,1-2.27-2.27V110.27A2.27,2.27,0,0,0,107.38,108Z"/><path class="cls-2" d="M4,132.5h6.74a2.69,2.69,0,0,1,2.49,1.67l5.08,12.55h.07l-.52-11.42a2.68,2.68,0,0,1,2.68-2.8h3.73A2.68,2.68,0,0,1,27,135.18v20.34a2.68,2.68,0,0,1-2.68,2.68H18.47A2.68,2.68,0,0,1,16,156.57l-6-14.1H9.9l.53,12.94a2.69,2.69,0,0,1-2.68,2.79H4a2.68,2.68,0,0,1-2.68-2.68V135.18A2.68,2.68,0,0,1,4,132.5Z"/><path class="cls-2" d="M32.72,132.5H51a1.37,1.37,0,0,1,1.37,1.37v4.75A1.37,1.37,0,0,1,51,140H42.62a1.36,1.36,0,0,0-1.37,1.36h0a1.37,1.37,0,0,0,1.37,1.37H51a1.37,1.37,0,0,1,1.37,1.37v3.28A1.36,1.36,0,0,1,51,148.73H42.62a1.37,1.37,0,0,0-1.37,1.37h0a1.37,1.37,0,0,0,1.37,1.37H51a1.37,1.37,0,0,1,1.37,1.37v4A1.37,1.37,0,0,1,51,158.2H32.72a1.37,1.37,0,0,1-1.37-1.37v-23A1.37,1.37,0,0,1,32.72,132.5Z"/><path class="cls-2" d="M58.1,132.5H76.35a1.37,1.37,0,0,1,1.37,1.37v4.75A1.38,1.38,0,0,1,76.35,140H68a1.36,1.36,0,0,0-1.37,1.36h0A1.37,1.37,0,0,0,68,142.72h8.35a1.37,1.37,0,0,1,1.37,1.37v3.28a1.37,1.37,0,0,1-1.37,1.36H68a1.37,1.37,0,0,0-1.37,1.37h0A1.37,1.37,0,0,0,68,151.47h8.35a1.37,1.37,0,0,1,1.37,1.37v4a1.37,1.37,0,0,1-1.37,1.37H58.1a1.37,1.37,0,0,1-1.37-1.37v-23A1.37,1.37,0,0,1,58.1,132.5Z"/><path class="cls-2" d="M82.11,134.84a2.34,2.34,0,0,1,2.34-2.34H94.6c8.28,0,13.72,1.8,13.72,12.24,0,8.46-3.57,13.46-11.49,13.46H84.45a2.34,2.34,0,0,1-2.34-2.34Zm9.4,15A1.18,1.18,0,0,0,92.69,151h1.48c3.78,0,4.5-2.05,4.5-5.54s-.76-4.72-4.79-4.72H92.69a1.18,1.18,0,0,0-1.18,1.19Z"/></g></g></svg>