<svg xmlns="http://www.w3.org/2000/svg" viewBox="0 0 13.02 27.35"><defs><style>.cls-1{fill:none;stroke:#be1e2d;stroke-miterlimit:10;}</style></defs><title>NS_BSx1</title><g id="Layer_2" data-name="Layer 2"><g id="Layer_5" data-name="Layer 5"><path class="cls-1" d="M1.29,9.07A52.49,52.49,0,0,1,.5,3.24C.5,1.08,1.36.5,3.78.5H9.25c2.41,0,3.27.58,3.27,2.74a52.49,52.49,0,0,1-.79,5.83l-1.31,7.22a2.29,2.29,0,0,1-2.26,1.88H4.87a2.29,2.29,0,0,1-2.26-1.88Zm.65,13.78c0-2.12.83-2.73,3.56-2.73h2c2.77,0,3.6.61,3.6,2.73v1.26c0,2.13-.83,2.74-3.6,2.74h-2c-2.73,0-3.56-.61-3.56-2.74Z"/></g></g></svg>